<?xml version="1.0" encoding="UTF-8"?>
<svg width="48" height="48" fill="none" version="1.1" viewBox="-1.5 -1.5 48 48" xmlns="http://www.w3.org/2000/svg" xmlns:cc="http://creativecommons.org/ns#" xmlns:dc="http://purl.org/dc/elements/1.1/" xmlns:rdf="http://www.w3.org/1999/02/22-rdf-syntax-ns#">
<metadata>
<rdf:RDF>
<cc:Work rdf:about="">
<dc:format>image/svg+xml</dc:format>
<dc:type rdf:resource="http://purl.org/dc/dcmitype/StillImage"/>
<dc:title/>
</cc:Work>
</rdf:RDF>
</metadata>
<g transform="translate(16.467)" shape-rendering="auto">
<path d="m13.295 9.5088c-7.1573 4e-7 -12.99 5.833-12.99 12.99 6e-7 7.1573 5.833 12.992 12.99 12.992 7.0543 0 12.796-5.6756 12.961-12.691 4.8e-5 -2e-3 0.0019-0.0038 2e-3 -0.0059a1.5 1.5 0 0 0 0.0293-0.29492 1.5 1.5 0 0 0-0.03125-0.30469 1.5 1.5 0 0 0 0-2e-3c-0.16774-7.013-5.9087-12.684-12.961-12.684z" color="#000000" color-rendering="auto" dominant-baseline="auto" fill="#000" image-rendering="auto" solid-color="#000000" stop-color="#000000" stroke="#fff" stroke-linecap="round" stroke-width="3" style="font-feature-settings:normal;font-variant-alternates:normal;font-variant-caps:normal;font-variant-east-asian:normal;font-variant-ligatures:normal;font-variant-numeric:normal;font-variant-position:normal;font-variation-settings:normal;inline-size:0;isolation:auto;mix-blend-mode:normal;shape-margin:0;shape-padding:0;text-decoration-color:#000000;text-decoration-line:none;text-decoration-style:solid;text-indent:0;text-orientation:mixed;text-transform:none;white-space:normal"/>
<path d="m13.295 9.5088c-7.1573 4e-7 -12.99 5.833-12.99 12.99 6e-7 7.1573 5.833 12.992 12.99 12.992 7.0543 0 12.796-5.6756 12.961-12.691 4.8e-5 -2e-3 0.0019-0.0038 2e-3 -0.0059a1.5 1.5 0 0 0 0.0293-0.29492 1.5 1.5 0 0 0-0.03125-0.30469 1.5 1.5 0 0 0 0-2e-3c-0.16774-7.013-5.9087-12.684-12.961-12.684z" color="#000000" color-rendering="auto" dominant-baseline="auto" fill="#000" image-rendering="auto" solid-color="#000000" stop-color="#000000" style="font-feature-settings:normal;font-variant-alternates:normal;font-variant-caps:normal;font-variant-east-asian:normal;font-variant-ligatures:normal;font-variant-numeric:normal;font-variant-position:normal;font-variation-settings:normal;inline-size:0;isolation:auto;mix-blend-mode:normal;shape-margin:0;shape-padding:0;text-decoration-color:#000000;text-decoration-line:none;text-decoration-style:solid;text-indent:0;text-orientation:mixed;text-transform:none;white-space:normal"/>
<path d="m13.295 12.509c5.5359 0 9.9922 4.4543 9.9922 9.9902-1e-6 5.5359-4.4563 9.9922-9.9922 9.9922-5.5359-1e-6 -9.9902-4.4563-9.9902-9.9922-1e-7 -5.5359 4.4543-9.9902 9.9902-9.9902z" color="#000000" color-rendering="auto" dominant-baseline="auto" fill="#fff" image-rendering="auto" solid-color="#000000" stop-color="#000000" style="font-feature-settings:normal;font-variant-alternates:normal;font-variant-caps:normal;font-variant-east-asian:normal;font-variant-ligatures:normal;font-variant-numeric:normal;font-variant-position:normal;font-variation-settings:normal;inline-size:0;isolation:auto;mix-blend-mode:normal;shape-margin:0;shape-padding:0;text-decoration-color:#000000;text-decoration-line:none;text-decoration-style:solid;text-indent:0;text-orientation:mixed;text-transform:none;white-space:normal"/>
</g>
<g transform="translate(12.153)" shape-rendering="auto">
<path d="m13.295 9.5088c-7.1573 4e-7 -12.99 5.833-12.99 12.99 6e-7 7.1573 5.833 12.992 12.99 12.992 7.0543 0 12.796-5.6756 12.961-12.691 4.8e-5 -2e-3 0.0019-0.0038 2e-3 -0.0059a1.5 1.5 0 0 0 0.0293-0.29492 1.5 1.5 0 0 0-0.03125-0.30469 1.5 1.5 0 0 0 0-2e-3c-0.16774-7.013-5.9087-12.684-12.961-12.684z" color="#000000" color-rendering="auto" dominant-baseline="auto" fill="#000" image-rendering="auto" solid-color="#000000" stop-color="#000000" stroke="#fff" stroke-linecap="round" stroke-width="3" style="font-feature-settings:normal;font-variant-alternates:normal;font-variant-caps:normal;font-variant-east-asian:normal;font-variant-ligatures:normal;font-variant-numeric:normal;font-variant-position:normal;font-variation-settings:normal;inline-size:0;isolation:auto;mix-blend-mode:normal;shape-margin:0;shape-padding:0;text-decoration-color:#000000;text-decoration-line:none;text-decoration-style:solid;text-indent:0;text-orientation:mixed;text-transform:none;white-space:normal"/>
<path d="m13.295 9.5088c-7.1573 4e-7 -12.99 5.833-12.99 12.99 6e-7 7.1573 5.833 12.992 12.99 12.992 7.0543 0 12.796-5.6756 12.961-12.691 4.8e-5 -2e-3 0.0019-0.0038 2e-3 -0.0059a1.5 1.5 0 0 0 0.0293-0.29492 1.5 1.5 0 0 0-0.03125-0.30469 1.5 1.5 0 0 0 0-2e-3c-0.16774-7.013-5.9087-12.684-12.961-12.684z" color="#000000" color-rendering="auto" dominant-baseline="auto" fill="#000" image-rendering="auto" solid-color="#000000" stop-color="#000000" style="font-feature-settings:normal;font-variant-alternates:normal;font-variant-caps:normal;font-variant-east-asian:normal;font-variant-ligatures:normal;font-variant-numeric:normal;font-variant-position:normal;font-variation-settings:normal;inline-size:0;isolation:auto;mix-blend-mode:normal;shape-margin:0;shape-padding:0;text-decoration-color:#000000;text-decoration-line:none;text-decoration-style:solid;text-indent:0;text-orientation:mixed;text-transform:none;white-space:normal"/>
<path d="m13.295 12.509c5.5359 0 9.9922 4.4543 9.9922 9.9902-1e-6 5.5359-4.4563 9.9922-9.9922 9.9922-5.5359-1e-6 -9.9902-4.4563-9.9902-9.9922-1e-7 -5.5359 4.4543-9.9902 9.9902-9.9902z" color="#000000" color-rendering="auto" dominant-baseline="auto" fill="#fff" image-rendering="auto" solid-color="#000000" stop-color="#000000" style="font-feature-settings:normal;font-variant-alternates:normal;font-variant-caps:normal;font-variant-east-asian:normal;font-variant-ligatures:normal;font-variant-numeric:normal;font-variant-position:normal;font-variation-settings:normal;inline-size:0;isolation:auto;mix-blend-mode:normal;shape-margin:0;shape-padding:0;text-decoration-color:#000000;text-decoration-line:none;text-decoration-style:solid;text-indent:0;text-orientation:mixed;text-transform:none;white-space:normal"/>
</g>
<g transform="translate(6.9392)" shape-rendering="auto">
<path d="m13.295 9.5088c-7.1573 4e-7 -12.99 5.833-12.99 12.99 6e-7 7.1573 5.833 12.992 12.99 12.992 7.0543 0 12.796-5.6756 12.961-12.691 4.8e-5 -2e-3 0.0019-0.0038 2e-3 -0.0059a1.5 1.5 0 0 0 0.0293-0.29492 1.5 1.5 0 0 0-0.03125-0.30469 1.5 1.5 0 0 0 0-2e-3c-0.16774-7.013-5.9087-12.684-12.961-12.684z" color="#000000" color-rendering="auto" dominant-baseline="auto" fill="#000" image-rendering="auto" solid-color="#000000" stop-color="#000000" stroke="#fff" stroke-linecap="round" stroke-width="3" style="font-feature-settings:normal;font-variant-alternates:normal;font-variant-caps:normal;font-variant-east-asian:normal;font-variant-ligatures:normal;font-variant-numeric:normal;font-variant-position:normal;font-variation-settings:normal;inline-size:0;isolation:auto;mix-blend-mode:normal;shape-margin:0;shape-padding:0;text-decoration-color:#000000;text-decoration-line:none;text-decoration-style:solid;text-indent:0;text-orientation:mixed;text-transform:none;white-space:normal"/>
<path d="m13.295 9.5088c-7.1573 4e-7 -12.99 5.833-12.99 12.99 6e-7 7.1573 5.833 12.992 12.99 12.992 7.0543 0 12.796-5.6756 12.961-12.691 4.8e-5 -2e-3 0.0019-0.0038 2e-3 -0.0059a1.5 1.5 0 0 0 0.0293-0.29492 1.5 1.5 0 0 0-0.03125-0.30469 1.5 1.5 0 0 0 0-2e-3c-0.16774-7.013-5.9087-12.684-12.961-12.684z" color="#000000" color-rendering="auto" dominant-baseline="auto" fill="#000" image-rendering="auto" solid-color="#000000" stop-color="#000000" style="font-feature-settings:normal;font-variant-alternates:normal;font-variant-caps:normal;font-variant-east-asian:normal;font-variant-ligatures:normal;font-variant-numeric:normal;font-variant-position:normal;font-variation-settings:normal;inline-size:0;isolation:auto;mix-blend-mode:normal;shape-margin:0;shape-padding:0;text-decoration-color:#000000;text-decoration-line:none;text-decoration-style:solid;text-indent:0;text-orientation:mixed;text-transform:none;white-space:normal"/>
<path d="m13.295 12.509c5.5359 0 9.9922 4.4543 9.9922 9.9902-1e-6 5.5359-4.4563 9.9922-9.9922 9.9922-5.5359-1e-6 -9.9902-4.4563-9.9902-9.9922-1e-7 -5.5359 4.4543-9.9902 9.9902-9.9902z" color="#000000" color-rendering="auto" dominant-baseline="auto" fill="#fff" image-rendering="auto" solid-color="#000000" stop-color="#000000" style="font-feature-settings:normal;font-variant-alternates:normal;font-variant-caps:normal;font-variant-east-asian:normal;font-variant-ligatures:normal;font-variant-numeric:normal;font-variant-position:normal;font-variation-settings:normal;inline-size:0;isolation:auto;mix-blend-mode:normal;shape-margin:0;shape-padding:0;text-decoration-color:#000000;text-decoration-line:none;text-decoration-style:solid;text-indent:0;text-orientation:mixed;text-transform:none;white-space:normal"/>
</g>
<g shape-rendering="auto">
<path d="m13.295 9.5088c-7.1573 4e-7 -12.99 5.833-12.99 12.99 6e-7 7.1573 5.833 12.992 12.99 12.992 7.0543 0 12.796-5.6756 12.961-12.691 4.8e-5 -2e-3 0.0019-0.0038 2e-3 -0.0059a1.5 1.5 0 0 0 0.0293-0.29492 1.5 1.5 0 0 0-0.03125-0.30469 1.5 1.5 0 0 0 0-2e-3c-0.16774-7.013-5.9087-12.684-12.961-12.684z" color="#000000" color-rendering="auto" dominant-baseline="auto" fill="#000" image-rendering="auto" solid-color="#000000" stop-color="#000000" stroke="#fff" stroke-linecap="round" stroke-width="3" style="font-feature-settings:normal;font-variant-alternates:normal;font-variant-caps:normal;font-variant-east-asian:normal;font-variant-ligatures:normal;font-variant-numeric:normal;font-variant-position:normal;font-variation-settings:normal;inline-size:0;isolation:auto;mix-blend-mode:normal;shape-margin:0;shape-padding:0;text-decoration-color:#000000;text-decoration-line:none;text-decoration-style:solid;text-indent:0;text-orientation:mixed;text-transform:none;white-space:normal"/>
<path d="m13.295 9.5088c-7.1573 4e-7 -12.99 5.833-12.99 12.99 6e-7 7.1573 5.833 12.992 12.99 12.992 7.0543 0 12.796-5.6756 12.961-12.691 4.8e-5 -2e-3 0.0019-0.0038 2e-3 -0.0059a1.5 1.5 0 0 0 0.0293-0.29492 1.5 1.5 0 0 0-0.03125-0.30469 1.5 1.5 0 0 0 0-2e-3c-0.16774-7.013-5.9087-12.684-12.961-12.684z" color="#000000" color-rendering="auto" dominant-baseline="auto" fill="#000" image-rendering="auto" solid-color="#000000" stop-color="#000000" style="font-feature-settings:normal;font-variant-alternates:normal;font-variant-caps:normal;font-variant-east-asian:normal;font-variant-ligatures:normal;font-variant-numeric:normal;font-variant-position:normal;font-variation-settings:normal;inline-size:0;isolation:auto;mix-blend-mode:normal;shape-margin:0;shape-padding:0;text-decoration-color:#000000;text-decoration-line:none;text-decoration-style:solid;text-indent:0;text-orientation:mixed;text-transform:none;white-space:normal"/>
<path d="m13.295 12.509c5.5359 0 9.9922 4.4543 9.9922 9.9902-1e-6 5.5359-4.4563 9.9922-9.9922 9.9922-5.5359-1e-6 -9.9902-4.4563-9.9902-9.9922-1e-7 -5.5359 4.4543-9.9902 9.9902-9.9902z" color="#000000" color-rendering="auto" dominant-baseline="auto" fill="#fff" image-rendering="auto" solid-color="#000000" stop-color="#000000" style="font-feature-settings:normal;font-variant-alternates:normal;font-variant-caps:normal;font-variant-east-asian:normal;font-variant-ligatures:normal;font-variant-numeric:normal;font-variant-position:normal;font-variation-settings:normal;inline-size:0;isolation:auto;mix-blend-mode:normal;shape-margin:0;shape-padding:0;text-decoration-color:#000000;text-decoration-line:none;text-decoration-style:solid;text-indent:0;text-orientation:mixed;text-transform:none;white-space:normal"/>
</g>
</svg>
