<?xml version="1.0" encoding="UTF-8" standalone="no"?>
<svg
   xmlns:dc="http://purl.org/dc/elements/1.1/"
   xmlns:cc="http://creativecommons.org/ns#"
   xmlns:rdf="http://www.w3.org/1999/02/22-rdf-syntax-ns#"
   xmlns:svg="http://www.w3.org/2000/svg"
   xmlns="http://www.w3.org/2000/svg"
   xmlns:sodipodi="http://sodipodi.sourceforge.net/DTD/sodipodi-0.dtd"
   xmlns:inkscape="http://www.inkscape.org/namespaces/inkscape"
   inkscape:version="1.0beta2 (074b463, 2020-02-02)"
   sodipodi:docname="capital-X-line.svg"
   id="svg845"
   version="1.1"
   width="14"
   height="14"
   viewBox="-0.5 -0.5 14 14"
   fill="none">
  <metadata
     id="metadata851">
    <rdf:RDF>
      <cc:Work
         rdf:about="">
        <dc:format>image/svg+xml</dc:format>
        <dc:type
           rdf:resource="http://purl.org/dc/dcmitype/StillImage" />
        <dc:title></dc:title>
      </cc:Work>
    </rdf:RDF>
  </metadata>
  <defs
     id="defs849" />
  <sodipodi:namedview
     inkscape:current-layer="svg845"
     inkscape:window-maximized="1"
     inkscape:window-y="-8"
     inkscape:window-x="-8"
     inkscape:cy="7.0140865"
     inkscape:cx="6.6508236"
     inkscape:zoom="47.426662"
     showgrid="false"
     id="namedview847"
     inkscape:window-height="1129"
     inkscape:window-width="1920"
     inkscape:pageshadow="2"
     inkscape:pageopacity="0"
     guidetolerance="10"
     gridtolerance="10"
     objecttolerance="10"
     borderopacity="1"
     bordercolor="#666666"
     pagecolor="#ffffff"
     inkscape:document-rotation="0"
     inkscape:object-paths="true" />
  <g
     style="font-size:17.823px;line-height:1.25;font-family:Arial;-inkscape-font-specification:'Arial Normal';letter-spacing:0px;word-spacing:0px;fill:#000000;fill-opacity:1;stroke-width:1"
     id="text2026"
     aria-label="X">
    <path
       id="path2040"
       style="font-style:normal;font-variant:normal;font-weight:normal;font-stretch:normal;font-family:'Arial Rounded MT Bold';-inkscape-font-specification:'Arial Rounded MT Bold, ';stroke-width:1"
       d="M 2.0834119,10.365502 4.9378767,6.1969392 2.535949,2.489616 Q 2.1965462,1.9500525 2.0224935,1.5671365 1.8571434,1.1755179 1.8571434,0.81870976 q 0,-0.36551075 0.3219975,-0.65269776 0.3307002,-0.29588964 0.8006426,-0.29588964 0.5395635,0 0.8354531,0.32199755 0.3045923,0.31329492 0.8354531,1.17485599 L 6.5652698,4.4651145 8.6103894,1.3669759 Q 8.8627659,0.97535722 9.0368186,0.69687284 9.219574,0.41838847 9.3849241,0.2356331 9.5502742,0.05287773 9.7504348,-0.03414864 q 0.2088633,-0.095729 0.4786452,-0.095729 0.487348,0 0.79194,0.29588964 0.313295,0.28718701 0.313295,0.6875083 0,0.5830767 -0.670103,1.5838799 L 8.1491497,6.1969392 10.85567,10.365502 q 0.36551,0.548266 0.530861,0.913777 0.16535,0.356808 0.16535,0.678806 0,0.304592 -0.147945,0.556968 -0.147945,0.252377 -0.417727,0.400322 -0.269781,0.147945 -0.609184,0.147945 -0.365511,0 -0.6178875,-0.156648 Q 9.506761,12.758727 9.3501136,12.532459 9.1934661,12.30619 8.7670369,11.653492 L 6.5217566,8.1202219 4.1372342,11.757924 q -0.2784844,0.435132 -0.4003213,0.609185 -0.1131343,0.174052 -0.2784844,0.339402 -0.1653501,0.165351 -0.3916186,0.26108 -0.2262686,0.09573 -0.5308609,0.09573 -0.4699424,0 -0.7832373,-0.287187 -0.3045923,-0.287187 -0.3045923,-0.835454 0,-0.643995 0.6352925,-1.575177 z" />
  </g>
</svg>
