<svg xmlns="http://www.w3.org/2000/svg" fill="none" viewBox="-0.5 -0.5 14 14" height="14" width="14"><g id="color-picker--color-colors-design-dropper-eye-eyedrop-eyedropper-painting-picker"><path id="Vector" stroke="#000" stroke-linecap="round" stroke-linejoin="round" d="M11.529421428571428 1.470467142857143c-0.30150714285714286 -0.30415357142857147 -0.6602142857142858 -0.545584 -1.055507142857143 -0.7103450714285714 -0.39529285714285717 -0.16476014285714288 -0.8193714285714285 -0.24958885714285717 -1.2475914285714287 -0.24958885714285717 -0.4282571428571429 0 -0.8522707142857143 0.0848287142857143 -1.2475635714285713 0.24958885714285717 -0.39529285714285717 0.16476107142857144 -0.7540371428571429 0.40619150000000004 -1.0555164285714287 0.7103450714285714L2.694807142857143 5.698912142857143c-0.4189528571428572 0.418275 -0.6925100000000001 0.9600128571428572 -0.7804085714285715 1.5454492857142859 -0.08789857142857142 0.5854457142857143 0.014513571428571431 1.1836314285714287 0.2921564285714286 1.7064914285714288L0.7786461428571428 10.378735714285714c-0.17157957142857144 0.1726214285714286 -0.26788635714285713 0.4061571428571429 -0.26788635714285713 0.6495357142857143 0 0.2432857142857143 0.09630678571428572 0.47682142857142856 0.26788635714285713 0.6494428571428572l0.5435281428571429 0.5434928571428572c0.17260285714285714 0.1716 0.40609214285714285 0.26789285714285715 0.6494614285714286 0.26789285714285715 0.24337857142857144 0 0.4768678571428571 -0.09629285714285715 0.6494707142857143 -0.26789285714285715l1.4279014285714287 -1.4278642857142858c0.52286 0.27764285714285714 1.121055 0.38006428571428574 1.7064914285714288 0.2921285714285714 0.5854364285714285 -0.0879357142857143 1.1271835714285714 -0.3614928571428571 1.5454492857142859 -0.7803714285714286l4.228472857142858 -4.228482142857143c0.30410714285714285 -0.3014792857142857 0.5455357142857143 -0.6602235714285715 0.7103571428571429 -1.0555164285714287 0.16472857142857145 -0.39529285714285717 0.24950714285714287 -0.8193064285714285 0.24950714285714287 -1.2475542857142858 0 -0.4282571428571429 -0.08477857142857144 -0.8522707142857143 -0.24950714285714287 -1.2475635714285713 -0.16482142857142856 -0.39529285714285717 -0.40625 -0.7540371428571429 -0.7103571428571429 -1.0555164285714287v0Z" stroke-width="1"></path><path id="Vector_2" stroke="#000" stroke-linecap="round" stroke-linejoin="round" d="m4.196372142857143 1.4336678571428572 7.369820714285714 7.36983" stroke-width="1"></path></g></svg>