<svg xmlns="http://www.w3.org/2000/svg" fill="none" viewBox="-0.5 -0.5 14 14" height="14" width="14"><g id="horizontal-slider-2--adjustment-adjust-controls-fader-horizontal-settings-slider"><path id="Vector" stroke="#000000" stroke-linecap="round" stroke-linejoin="round" d="M0.9285714285714286 6.5h4.178571428571429" stroke-width="1"></path><path id="Vector_2" stroke="#000000" stroke-linecap="round" stroke-linejoin="round" d="M0.9285714285714286 10.88192857142857h8.357142857142858" stroke-width="1"></path><path id="Vector_3" stroke="#000000" stroke-linecap="round" stroke-linejoin="round" d="M7.892857142857143 6.5H12.071428571428571" stroke-width="1"></path><path id="Vector_4" stroke="#000000" stroke-linecap="round" stroke-linejoin="round" d="M12.071428571428571 2.1180714285714286H3.7142857142857144" stroke-width="1"></path><path id="Vector_5" stroke="#000000" stroke-linecap="round" stroke-linejoin="round" d="M0.9285714285714286 2.1180714285714286c0 0.8914285714285715 0.5014285714285714 1.3928571428571428 1.3928571428571428 1.3928571428571428s1.3928571428571428 -0.5014285714285714 1.3928571428571428 -1.3928571428571428 -0.5014285714285714 -1.3928571428571428 -1.3928571428571428 -1.3928571428571428 -1.3928571428571428 0.5014285714285714 -1.3928571428571428 1.3928571428571428Z" stroke-width="1"></path><path id="Vector_6" stroke="#000000" stroke-linecap="round" stroke-linejoin="round" d="M9.285714285714286 10.88192857142857c0 0.8914285714285715 0.5014285714285714 1.3928571428571428 1.3928571428571428 1.3928571428571428s1.3928571428571428 -0.5014285714285714 1.3928571428571428 -1.3928571428571428 -0.5014285714285714 -1.3928571428571428 -1.3928571428571428 -1.3928571428571428 -1.3928571428571428 0.5014285714285714 -1.3928571428571428 1.3928571428571428Z" stroke-width="1"></path><path id="Vector_7" stroke="#000000" stroke-linecap="round" stroke-linejoin="round" d="M5.1285 6.5c0 0.8914285714285715 0.5014285714285714 1.3928571428571428 1.3928571428571428 1.3928571428571428s1.3928571428571428 -0.5014285714285714 1.3928571428571428 -1.3928571428571428 -0.5014285714285714 -1.3928571428571428 -1.3928571428571428 -1.3928571428571428 -1.3928571428571428 0.5014285714285714 -1.3928571428571428 1.3928571428571428Z" stroke-width="1"></path></g></svg>