<svg xmlns="http://www.w3.org/2000/svg" fill="none" viewBox="0 0 14 14" height="14" width="14"><g id="horizontal-slider-2--adjustment-adjust-controls-fader-horizontal-settings-slider"><path id="Union" fill="#000000" fill-rule="evenodd" d="M4.14 1.531a1.748 1.748 0 0 0 -0.426 -0.713C3.34 0.444 2.822 0.28 2.25 0.28S1.16 0.444 0.786 0.818C0.412 1.192 0.25 1.709 0.25 2.28c0 0.572 0.162 1.09 0.536 1.464 0.374 0.374 0.892 0.536 1.464 0.536s1.09 -0.162 1.464 -0.536c0.2 -0.201 0.34 -0.444 0.427 -0.714H13a0.75 0.75 0 0 0 0 -1.5H4.14ZM8.89 6.25H13a0.75 0.75 0 0 1 0 1.5H8.89c-0.086 0.27 -0.225 0.513 -0.426 0.714C8.09 8.838 7.572 9 7 9s-1.09 -0.162 -1.464 -0.536a1.748 1.748 0 0 1 -0.427 -0.714H1a0.75 0.75 0 0 1 0 -1.5h4.11c0.086 -0.27 0.225 -0.513 0.426 -0.714C5.91 5.162 6.428 5 7 5s1.09 0.162 1.464 0.536c0.2 0.201 0.34 0.444 0.427 0.714Zm4.86 5.469c0 -0.572 -0.162 -1.09 -0.536 -1.464 -0.375 -0.374 -0.892 -0.536 -1.464 -0.536s-1.09 0.162 -1.464 0.536c-0.2 0.201 -0.34 0.444 -0.427 0.714H1a0.75 0.75 0 1 0 0 1.5h8.86c0.086 0.27 0.225 0.512 0.426 0.713 0.375 0.374 0.892 0.537 1.464 0.537s1.09 -0.163 1.464 -0.537c0.374 -0.374 0.536 -0.891 0.536 -1.463Z" clip-rule="evenodd" stroke-width="1"></path></g></svg>