<svg xmlns="http://www.w3.org/2000/svg" fill="none" viewBox="0 0 14 14" height="14" width="14"><g id="paint-bucket--bucket-color-colors-design-paint-painting"><path id="Union" fill="#000" fill-rule="evenodd" d="M11.85 5.861c0.22 0.22 0.194 0.585 -0.055 0.771l-6.9 5.17a1.022 1.022 0 0 1 -1.318 -0.092L0.295 8.425a1.023 1.023 0 0 1 -0.092 -1.33L5.37 0.206A0.511 0.511 0 0 1 6.14 0.15l5.71 5.711Zm0.101 4.437c-0.464 0.697 -0.951 1.596 -0.951 2.217C11 13.63 11.75 14 12.5 14s1.5 -0.371 1.5 -1.485c0 -0.621 -0.487 -1.52 -0.951 -2.217a0.654 0.654 0 0 0 -1.098 0Z" clip-rule="evenodd" stroke-width="1"></path></g></svg>