<svg xmlns="http://www.w3.org/2000/svg" fill="none" viewBox="-0.5 -0.5 14 14" height="14" width="14"><g id="paintbrush-2--brush-color-colors-design-paint-painting"><path id="Vector" stroke="#000" stroke-linecap="round" stroke-linejoin="round" d="M5.694863571428572 11.195228571428572c-1.4207142857142858 1.4300000000000002 -3.835 1.9035714285714285 -5.227857142857143 0.4735714285714286 1.8571428571428572 -1.9221428571428572 0 -2.8507050000000005 1.3928571428571428 -4.243562142857143 0.24457642857142858 -0.27243357142857144 0.5421278571428572 -0.49214285714285716 0.8744914285714286 -0.6456821428571429 0.3323542857142857 -0.15354857142857145 0.6925285714285715 -0.237705 1.0585157142857142 -0.2473342857142857 0.36598714285714284 -0.009638571428571429 0.7300985714285714 0.05546357142857143 1.0700671428571429 0.19131357142857142 0.33997785714285716 0.13585000000000003 0.6486814285714285 0.3395971428571429 0.9072421428571429 0.5987985714285714 0.25856071428571425 0.25919214285714287 0.4615557142857143 0.5683878571428572 0.5965792857142858 0.9087000000000001 0.13502357142857144 0.34030285714285713 0.19922499999999999 0.7045628571428572 0.18870428571428574 1.0705592857142858 -0.01053 0.36595 -0.09556857142857143 0.7258642857142857 -0.249925 1.0579214285714287 -0.15435642857142856 0.3319642857142857 -0.3747807142857143 0.6289214285714286 -0.6478178571428571 0.8728571428571429l0.037142857142857144 -0.037142857142857144Z" stroke-width="1"></path><path id="Vector_2" stroke="#000" stroke-linecap="round" stroke-linejoin="round" d="m4.3624285714285715 6.57657 4.925978571428572 -5.493679285714286c0.7002357142857143 -0.7871435000000001 1.964114285714286 -0.8261119285714286 2.7114285714285713 -0.08357142857142857 0.7429500000000001 0.7473607142857143 0.7038571428571428 2.0113135714285715 -0.08357142857142857 2.7114285714285713L6.477965 8.580473571428572" stroke-width="1"></path></g></svg>