<?xml version="1.0" encoding="UTF-8" standalone="no"?>
<svg
   xmlns:dc="http://purl.org/dc/elements/1.1/"
   xmlns:cc="http://creativecommons.org/ns#"
   xmlns:rdf="http://www.w3.org/1999/02/22-rdf-syntax-ns#"
   xmlns:svg="http://www.w3.org/2000/svg"
   xmlns="http://www.w3.org/2000/svg"
   xmlns:sodipodi="http://sodipodi.sourceforge.net/DTD/sodipodi-0.dtd"
   xmlns:inkscape="http://www.inkscape.org/namespaces/inkscape"
   inkscape:version="1.0beta2 (074b463, 2020-02-02)"
   sodipodi:docname="question-mark-line.svg"
   id="svg845"
   version="1.1"
   width="14"
   height="14"
   viewBox="-0.5 -0.5 14 14"
   fill="none">
  <metadata
     id="metadata851">
    <rdf:RDF>
      <cc:Work
         rdf:about="">
        <dc:format>image/svg+xml</dc:format>
        <dc:type
           rdf:resource="http://purl.org/dc/dcmitype/StillImage" />
        <dc:title></dc:title>
      </cc:Work>
    </rdf:RDF>
  </metadata>
  <defs
     id="defs849" />
  <sodipodi:namedview
     inkscape:current-layer="svg845"
     inkscape:window-maximized="1"
     inkscape:window-y="-8"
     inkscape:window-x="-8"
     inkscape:cy="7.0140865"
     inkscape:cx="6.6508236"
     inkscape:zoom="47.426662"
     showgrid="false"
     id="namedview847"
     inkscape:window-height="1129"
     inkscape:window-width="1920"
     inkscape:pageshadow="2"
     inkscape:pageopacity="0"
     guidetolerance="10"
     gridtolerance="10"
     objecttolerance="10"
     borderopacity="1"
     bordercolor="#666666"
     pagecolor="#ffffff"
     inkscape:document-rotation="0"
     inkscape:object-paths="true" />
  <g
     transform="translate(0.20451215,0.04198182)"
     style="font-size:17.823px;line-height:1.25;font-family:Arial;-inkscape-font-specification:'Arial Normal';letter-spacing:0px;word-spacing:0px;fill:#000000;fill-opacity:1;stroke-width:1"
     id="text2026"
     aria-label="?">
    <path
       inkscape:connector-curvature="0"
       id="path2680"
       style="font-style:normal;font-variant:normal;font-weight:normal;font-stretch:normal;font-family:'Arial Rounded MT Bold';-inkscape-font-specification:'Arial Rounded MT Bold, ';stroke-width:1"
       d="m 1.9441697,3.5078245 q 0,-0.8267505 0.5308609,-1.6709063 0.5308608,-0.85285835 1.5490693,-1.4098271 1.0182085,-0.55696874 2.3758198,-0.55696874 1.2618823,0 2.227875,0.46994238 0.9659927,0.46123974 1.4881513,1.26188236 0.53086,0.8006425 0.53086,1.7405273 0,0.7397241 -0.304592,1.2966929 Q 10.046324,5.196136 9.6285979,5.6051599 9.219574,6.0054812 8.1491497,6.9627713 7.85326,7.232553 7.6705047,7.4414163 7.4964519,7.6415769 7.4094256,7.8156297 7.3223992,7.9809798 7.2701834,8.1550325 7.2266702,8.3203826 7.1309412,8.7468118 6.9655911,9.651886 6.0953274,9.651886 q -0.4525371,0 -0.765832,-0.2958896 Q 5.0249031,9.0601067 5.0249031,8.47703 q 0,-0.7310214 0.2262686,-1.2618823 Q 5.4774402,6.6755843 5.8516536,6.275263 6.225867,5.866239 6.8611595,5.3092703 7.4181282,4.8219226 7.661802,4.5782488 7.9141785,4.3258723 8.0795286,4.0212801 8.2535813,3.7166878 8.2535813,3.3598797 q 0,-0.696211 -0.5221582,-1.174856 -0.5134555,-0.478645 -1.3315034,-0.478645 -0.95729,0 -1.4098271,0.4873477 -0.4525371,0.478645 -0.7658321,1.4185297 -0.2958896,0.983398 -1.1226401,0.983398 -0.4873477,0 -0.8267505,-0.3394028 Q 1.9441697,3.9081458 1.9441697,3.5078245 Z m 4.2468867,9.5380895 q -0.5308608,0 -0.9311821,-0.339403 -0.3916186,-0.348105 -0.3916186,-0.965992 0,-0.548266 0.382916,-0.92248 0.382916,-0.374213 0.9398847,-0.374213 0.5482661,0 0.9224795,0.374213 0.3742134,0.374214 0.3742134,0.92248 0,0.609184 -0.3916187,0.95729 -0.3916186,0.348105 -0.9050742,0.348105 z" />
  </g>
</svg>
