<?xml version="1.0" encoding="UTF-8" standalone="no"?>
<svg
   xmlns:dc="http://purl.org/dc/elements/1.1/"
   xmlns:cc="http://creativecommons.org/ns#"
   xmlns:rdf="http://www.w3.org/1999/02/22-rdf-syntax-ns#"
   xmlns:svg="http://www.w3.org/2000/svg"
   xmlns="http://www.w3.org/2000/svg"
   xmlns:sodipodi="http://sodipodi.sourceforge.net/DTD/sodipodi-0.dtd"
   xmlns:inkscape="http://www.inkscape.org/namespaces/inkscape"
   inkscape:version="1.0beta2 (074b463, 2020-02-02)"
   sodipodi:docname="select-mode-line.svg"
   id="svg2094"
   version="1.1"
   width="48"
   height="48"
   viewBox="-1.5 -1.5 48 48"
   fill="none">
  <metadata
     id="metadata2100">
    <rdf:RDF>
      <cc:Work
         rdf:about="">
        <dc:format>image/svg+xml</dc:format>
        <dc:type
           rdf:resource="http://purl.org/dc/dcmitype/StillImage" />
        <dc:title></dc:title>
      </cc:Work>
    </rdf:RDF>
  </metadata>
  <defs
     id="defs2098" />
  <sodipodi:namedview
     inkscape:current-layer="svg2094"
     inkscape:window-maximized="1"
     inkscape:window-y="-8"
     inkscape:window-x="-8"
     inkscape:cy="13.558566"
     inkscape:cx="17.012686"
     inkscape:zoom="9.8333333"
     showgrid="false"
     id="namedview2096"
     inkscape:window-height="1129"
     inkscape:window-width="1920"
     inkscape:pageshadow="2"
     inkscape:pageopacity="0"
     guidetolerance="10"
     gridtolerance="10"
     objecttolerance="10"
     borderopacity="1"
     bordercolor="#666666"
     pagecolor="#ffffff" />
  <path
     id="Rectangle 1096"
     stroke="#000000"
     stroke-linecap="round"
     stroke-linejoin="round"
     d="m 25.3125,2.8275 c 2.095312,0.0225 3.966562,0.069375 5.625,0.13125"
     stroke-width="3"
     inkscape:connector-curvature="0" />
  <path
     id="Rectangle 1111"
     stroke="#000000"
     stroke-linecap="round"
     stroke-linejoin="round"
     d="M 14.0625,2.9578125 C 15.72,2.896875 17.592188,2.85 19.6875,2.8265625"
     stroke-width="3"
     inkscape:connector-curvature="0" />
  <path
     id="Rectangle 1110"
     stroke="#000000"
     stroke-linecap="round"
     stroke-linejoin="round"
     d="M 8.4375,3.2634375 7.7409375,3.3178125 C 5.345625,3.5128125 3.5128125,5.345625 3.3178125,7.7409375 3.2990625,7.963125 3.28125,8.195625 3.2634375,8.4375"
     stroke-width="3"
     inkscape:connector-curvature="0" />
  <path
     id="Rectangle 1109"
     stroke="#000000"
     stroke-linecap="round"
     stroke-linejoin="round"
     d="m 2.9578125,14.0625 a 215.94094,215.94094 0 0 0 -0.13125,5.625"
     stroke-width="3"
     inkscape:connector-curvature="0" />
  <path
     id="Rectangle 1108"
     stroke="#000000"
     stroke-linecap="round"
     stroke-linejoin="round"
     d="m 2.9578125,30.9375 a 215.94094,215.94094 0 0 1 -0.13125,-5.625"
     stroke-width="3"
     inkscape:connector-curvature="0" />
  <path
     id="Rectangle 1107"
     stroke="#000000"
     stroke-linecap="round"
     stroke-linejoin="round"
     d="M 8.4375,41.736562 7.7409375,41.682182 C 5.345625,41.487182 3.5128125,39.65437 3.3178125,37.259057 A 65.934375,65.934375 0 0 1 3.2634375,36.5625"
     stroke-width="3"
     inkscape:connector-curvature="0" />
  <path
     id="Rectangle 1106"
     stroke="#000000"
     stroke-linecap="round"
     stroke-linejoin="round"
     d="m 19.6875,42.1725 a 216.07031,216.07031 0 0 1 -5.625,-0.130313"
     stroke-width="3"
     inkscape:connector-curvature="0" />
  <path
     id="Rectangle 1105"
     stroke="#000000"
     stroke-linecap="round"
     stroke-linejoin="round"
     d="M 30.9375,42.042187 C 29.28,42.103125 27.407812,42.15 25.3125,42.173437"
     stroke-width="3"
     inkscape:connector-curvature="0" />
  <path
     id="Rectangle 1104"
     stroke="#000000"
     stroke-linecap="round"
     stroke-linejoin="round"
     d="m 41.736562,36.5625 -0.05438,0.696562 c -0.195,2.395313 -2.027812,4.228125 -4.423125,4.423125 -0.223125,0.01875 -0.454687,0.03656 -0.696562,0.05438"
     stroke-width="3"
     inkscape:connector-curvature="0" />
  <path
     id="Rectangle 1103"
     stroke="#000000"
     stroke-linecap="round"
     stroke-linejoin="round"
     d="m 42.1725,25.3125 a 216.04687,216.04687 0 0 1 -0.13125,5.625"
     stroke-width="3"
     inkscape:connector-curvature="0" />
  <path
     id="Rectangle 1102"
     stroke="#000000"
     stroke-linecap="round"
     stroke-linejoin="round"
     d="M 42.042187,14.0625 C 42.103125,15.72 42.15,17.592188 42.1725,19.6875"
     stroke-width="3"
     inkscape:connector-curvature="0" />
  <path
     id="Rectangle 1101"
     stroke="#000000"
     stroke-linecap="round"
     stroke-linejoin="round"
     d="m 36.5625,3.2634375 0.695625,0.054375 c 2.39625,0.195 4.229062,2.0278125 4.424062,4.423125 L 41.736562,8.4375"
     stroke-width="3"
     inkscape:connector-curvature="0" />
  <path
     inkscape:connector-curvature="0"
     id="path2676"
     d="m 22.296611,14.161017 -10e-7,16.677965"
     style="fill:none;stroke:#000000;stroke-width:6;stroke-linecap:round;stroke-linejoin:miter;stroke-miterlimit:4;stroke-dasharray:none;stroke-opacity:1" />
  <path
     style="fill:none;stroke:#000000;stroke-width:6;stroke-linecap:round;stroke-linejoin:miter;stroke-miterlimit:4;stroke-dasharray:none;stroke-opacity:1"
     d="M 30.635592,22.5 H 13.957628"
     id="path2678"
     inkscape:connector-curvature="0" />
</svg>
