<svg xmlns="http://www.w3.org/2000/svg" fill="none" viewBox="-1.5 -1.5 48 48" height="48" width="48"><g id="select-circle-area-1--select-area-object-work"><path id="Ellipse 582" stroke="#000" stroke-linecap="round" stroke-linejoin="round" d="M25.3125 3.0121875c1.5656249999999998 0.2240625 3.073125 0.6328125 4.498125 1.2028124999999998M19.6875 3.0121875c-1.55625 0.22218749999999998 -3.0524999999999998 0.6271875 -4.469062500000001 1.190625M25.3125 41.988749999999996a19.552500000000002 19.552500000000002 0 0 0 4.498125 -1.2028124999999998M19.6875 41.988749999999996a19.55625 19.55625 0 0 1 -4.5271875 -1.215M41.9878125 25.3125a19.5515625 19.5515625 0 0 1 -1.201875 4.4971875M41.9878125 19.6875a19.550625 19.550625 0 0 0 -1.190625 -4.468125M3.0121875 19.6875c0.22499999999999998 -1.576875 0.6375000000000001 -3.09375 1.2140624999999998 -4.52625M3.0121875 25.3125c0.2240625 1.5656249999999998 0.6318750000000001 3.073125 1.201875 4.4971875M34.65375 7.010625A19.803749999999997 19.803749999999997 0 0 1 37.96875 10.321875M10.321875 37.970625000000005a19.8065625 19.8065625 0 0 1 -3.3103125 -3.3159375m30.976875 0a19.805625000000003 19.805625000000003 0 0 1 -3.3346875 3.3346875M7.0303125 10.321875a19.8065625 19.8065625 0 0 1 3.290625 -3.290625" stroke-width="3"></path></g></svg>