<svg xmlns="http://www.w3.org/2000/svg" fill="none" viewBox="-1.5 -1.5 48 48" height="48" width="48"><g id="select-all"><path id="Rectangle 1096" stroke="#000" stroke-linecap="round" stroke-linejoin="round" d="M25.3125 2.8275c2.0953125 0.0225 3.9665624999999998 0.06937499999999999 5.625 0.13125" stroke-width="3"></path><path id="Rectangle 1111" stroke="#000" stroke-linecap="round" stroke-linejoin="round" d="M14.0625 2.9578124999999997c1.6575 -0.060937500000000006 3.5296875 -0.1078125 5.625 -0.13125" stroke-width="3"></path><path id="Rectangle 1110" stroke="#000" stroke-linecap="round" stroke-linejoin="round" d="m8.4375 3.2634374999999998 -0.6965625 0.054375c-2.3953125 0.19499999999999998 -4.2281249999999995 2.0278125 -4.423125 4.423125 -0.01875 0.22218749999999998 -0.0365625 0.45468749999999997 -0.054375 0.6965625" stroke-width="3"></path><path id="Rectangle 1109" stroke="#000" stroke-linecap="round" stroke-linejoin="round" d="M2.9578124999999997 14.0625a215.9409375 215.9409375 0 0 0 -0.13125 5.625" stroke-width="3"></path><path id="Rectangle 1108" stroke="#000" stroke-linecap="round" stroke-linejoin="round" d="M2.9578124999999997 30.9375a215.9409375 215.9409375 0 0 1 -0.13125 -5.625" stroke-width="3"></path><path id="Rectangle 1107" stroke="#000" stroke-linecap="round" stroke-linejoin="round" d="m8.4375 41.7365625 -0.6965625 -0.054375c-2.3953125 -0.19499999999999998 -4.2281249999999995 -2.0278125 -4.423125 -4.423125A65.934375 65.934375 0 0 1 3.2634374999999998 36.5625" stroke-width="3"></path><path id="Rectangle 1106" stroke="#000" stroke-linecap="round" stroke-linejoin="round" d="M19.6875 42.1725a216.0703125 216.0703125 0 0 1 -5.625 -0.1303125" stroke-width="3"></path><path id="Rectangle 1105" stroke="#000" stroke-linecap="round" stroke-linejoin="round" d="M30.9375 42.0421875c-1.6575 0.060937500000000006 -3.5296875 0.1078125 -5.625 0.13125" stroke-width="3"></path><path id="Rectangle 1104" stroke="#000" stroke-linecap="round" stroke-linejoin="round" d="m41.7365625 36.5625 -0.054375 0.6965625c-0.19499999999999998 2.3953125 -2.0278125 4.2281249999999995 -4.423125 4.423125 -0.223125 0.01875 -0.45468749999999997 0.0365625 -0.6965625 0.054375" stroke-width="3"></path><path id="Rectangle 1103" stroke="#000" stroke-linecap="round" stroke-linejoin="round" d="M42.1725 25.3125a216.046875 216.046875 0 0 1 -0.13125 5.625" stroke-width="3"></path><path id="Rectangle 1102" stroke="#000" stroke-linecap="round" stroke-linejoin="round" d="M42.0421875 14.0625c0.060937500000000006 1.6575 0.1078125 3.5296875 0.1303125 5.625" stroke-width="3"></path><path id="Rectangle 1101" stroke="#000" stroke-linecap="round" stroke-linejoin="round" d="m36.5625 3.2634374999999998 0.6956249999999999 0.054375c2.39625 0.19499999999999998 4.2290625 2.0278125 4.424062500000001 4.423125l0.054375 0.6965625" stroke-width="3"></path><path id="Rectangle 1100" stroke="#000" stroke-linecap="round" stroke-linejoin="round" d="M32.59125 15.342187499999998a3.1275 3.1275 0 0 0 -2.9334375 -2.9343749999999997C28.060312500000002 12.29625 25.708125 12.1875 22.5 12.1875c-3.2081250000000003 0 -5.5603125 0.106875 -7.1578124999999995 0.22125a3.1275 3.1275 0 0 0 -2.9343749999999997 2.9334375C12.29625 16.939687499999998 12.1875 19.291875 12.1875 22.5c0 3.2081250000000003 0.106875 5.5603125 0.22125 7.1578124999999995a3.1275 3.1275 0 0 0 2.9334375 2.9343749999999997c1.5975 0.11249999999999999 3.9496875 0.2203125 7.1578124999999995 0.2203125 3.2081250000000003 0 5.5603125 -0.106875 7.1578124999999995 -0.22125a3.1275 3.1275 0 0 0 2.9343749999999997 -2.9334375c0.11249999999999999 -1.5975 0.2203125 -3.9496875 0.2203125 -7.1578124999999995 0 -3.2081250000000003 -0.106875 -5.5603125 -0.22125 -7.1578124999999995Z" stroke-width="3"></path></g></svg>